<?xml version="1.0" encoding="iso-8859-1"?>
<!-- Uploaded to: SVG Repo, www.svgrepo.com, Generator: SVG Repo Mixer Tools -->
<svg fill="#000000" height="800px" width="800px" version="1.1" id="Layer_1" xmlns="http://www.w3.org/2000/svg" xmlns:xlink="http://www.w3.org/1999/xlink" 
	 viewBox="0 0 512.003 512.003" xml:space="preserve">
<g>
	<g>
		<path d="M509.977,499.692c0.172-0.367,0.34-0.736,0.491-1.115c0.121-0.302,0.227-0.606,0.333-0.911
			c0.119-0.343,0.236-0.687,0.338-1.038c0.102-0.351,0.188-0.704,0.272-1.058c0.074-0.314,0.148-0.628,0.208-0.947
			c0.076-0.401,0.132-0.802,0.184-1.204c0.037-0.286,0.076-0.57,0.102-0.859c0.039-0.439,0.055-0.878,0.067-1.317
			c0.005-0.193,0.029-0.381,0.029-0.576V21.334C512.001,9.552,502.449,0,490.667,0H213.334h-85.333H21.334
			C9.552,0,0.001,9.552,0.001,21.334v128v85.333v255.88c0,0.004,0,0.009,0,0.013v0.107c0,0.207,0.025,0.407,0.031,0.612
			c0.014,0.478,0.027,0.956,0.072,1.431c0.034,0.357,0.096,0.705,0.147,1.057c0.049,0.332,0.087,0.664,0.152,0.993
			c0.076,0.388,0.177,0.766,0.273,1.147c0.073,0.291,0.138,0.583,0.224,0.871c0.11,0.369,0.244,0.728,0.373,1.088
			c0.106,0.296,0.205,0.593,0.324,0.885c0.134,0.326,0.287,0.64,0.436,0.957c0.148,0.317,0.291,0.635,0.456,0.946
			c0.148,0.278,0.313,0.545,0.473,0.816c0.194,0.33,0.384,0.662,0.597,0.983c0.166,0.25,0.349,0.487,0.526,0.729
			c0.231,0.318,0.456,0.638,0.706,0.945c0.211,0.26,0.442,0.502,0.665,0.751c0.238,0.265,0.466,0.536,0.719,0.791
			c0.335,0.338,0.692,0.652,1.049,0.968c0.155,0.137,0.294,0.286,0.454,0.419c0.013,0.011,0.027,0.019,0.04,0.03
			c0.546,0.453,1.113,0.882,1.703,1.279c0.044,0.03,0.091,0.053,0.135,0.082c0.537,0.357,1.088,0.693,1.658,1.001
			c0.262,0.142,0.533,0.255,0.799,0.385c0.36,0.176,0.715,0.36,1.086,0.515c0.324,0.136,0.656,0.242,0.985,0.361
			c0.326,0.118,0.645,0.248,0.978,0.35c0.388,0.119,0.782,0.206,1.174,0.302c0.284,0.07,0.562,0.155,0.851,0.213
			c0.641,0.13,1.285,0.225,1.932,0.295c0.047,0.005,0.092,0.016,0.139,0.021c0.708,0.072,1.419,0.106,2.128,0.107
			c0.017,0,0.033,0.003,0.049,0.003h469.333c0.081,0,0.159-0.011,0.24-0.012c0.42-0.005,0.838-0.034,1.256-0.063
			c0.303-0.021,0.608-0.035,0.908-0.069c0.337-0.038,0.669-0.099,1.003-0.153c0.37-0.059,0.741-0.112,1.104-0.191
			c0.251-0.054,0.496-0.128,0.745-0.192c0.427-0.108,0.855-0.213,1.271-0.347c0.212-0.068,0.417-0.155,0.627-0.23
			c0.435-0.155,0.87-0.307,1.291-0.489c0.257-0.11,0.504-0.244,0.756-0.364c0.357-0.171,0.717-0.334,1.063-0.524
			c0.347-0.19,0.679-0.407,1.016-0.617c0.237-0.148,0.482-0.285,0.712-0.442c0.38-0.258,0.742-0.544,1.107-0.828
			c0.175-0.136,0.357-0.262,0.528-0.404c0.338-0.281,0.658-0.587,0.98-0.891c0.185-0.174,0.378-0.34,0.557-0.521
			c0.262-0.265,0.507-0.551,0.756-0.832c0.224-0.252,0.453-0.499,0.665-0.762c0.19-0.235,0.365-0.485,0.546-0.73
			c0.25-0.337,0.498-0.673,0.727-1.025c0.044-0.068,0.095-0.127,0.139-0.196c0.104-0.164,0.185-0.336,0.285-0.502
			c0.226-0.377,0.448-0.755,0.651-1.146C509.735,500.215,509.854,499.953,509.977,499.692z M469.334,345.51l-116.609-72.88
			l116.609-131.185V345.51z M234.667,42.667h152.811L234.667,202.755V42.667z M192.001,42.667V256
			c0,19.246,23.476,28.652,36.765,14.73L446.462,42.667h22.871v34.556L304.056,263.161c-0.139,0.157-0.255,0.325-0.389,0.485
			c-0.249,0.298-0.497,0.597-0.732,0.912c-0.236,0.314-0.453,0.636-0.669,0.959c-0.115,0.173-0.245,0.332-0.356,0.51
			c-0.056,0.09-0.098,0.184-0.153,0.274c-0.225,0.372-0.43,0.75-0.63,1.132c-0.133,0.253-0.269,0.504-0.391,0.76
			c-0.177,0.372-0.333,0.749-0.486,1.127c-0.116,0.285-0.235,0.569-0.338,0.857c-0.122,0.344-0.226,0.691-0.33,1.04
			c-0.1,0.332-0.201,0.662-0.284,0.996c-0.077,0.312-0.135,0.625-0.198,0.939c-0.074,0.371-0.15,0.742-0.204,1.115
			c-0.042,0.293-0.067,0.587-0.097,0.881c-0.04,0.39-0.081,0.78-0.099,1.17c-0.014,0.297-0.01,0.593-0.011,0.889
			c-0.002,0.383-0.006,0.765,0.013,1.146c0.015,0.319,0.05,0.637,0.08,0.955c0.033,0.354,0.062,0.707,0.113,1.058
			c0.05,0.35,0.121,0.696,0.189,1.043c0.061,0.315,0.118,0.631,0.193,0.943c0.089,0.371,0.201,0.735,0.31,1.102
			c0.085,0.285,0.165,0.571,0.262,0.852c0.127,0.369,0.276,0.73,0.424,1.092c0.112,0.275,0.219,0.551,0.342,0.821
			c0.156,0.342,0.333,0.675,0.508,1.009c0.149,0.285,0.294,0.57,0.456,0.848c0.173,0.297,0.363,0.584,0.552,0.874
			c0.198,0.305,0.396,0.61,0.61,0.906c0.18,0.247,0.374,0.486,0.565,0.726c0.254,0.32,0.51,0.638,0.785,0.945
			c0.189,0.211,0.39,0.414,0.589,0.619c0.3,0.31,0.603,0.616,0.924,0.909c0.078,0.071,0.145,0.15,0.224,0.22
			c0.157,0.139,0.326,0.255,0.485,0.389c0.298,0.249,0.597,0.497,0.912,0.731c0.315,0.236,0.637,0.454,0.96,0.67
			c0.173,0.115,0.332,0.244,0.509,0.355l160.64,100.4v55.98l-201.88-128.469c-0.161-0.102-0.329-0.181-0.491-0.279
			c-0.357-0.215-0.716-0.422-1.082-0.614c-0.27-0.142-0.542-0.272-0.816-0.401c-0.362-0.17-0.724-0.333-1.093-0.482
			c-0.301-0.122-0.604-0.232-0.908-0.339c-0.343-0.12-0.687-0.235-1.035-0.337c-0.338-0.1-0.677-0.188-1.017-0.27
			c-0.322-0.077-0.643-0.15-0.967-0.212c-0.365-0.07-0.729-0.129-1.096-0.18c-0.31-0.043-0.619-0.081-0.929-0.11
			c-0.375-0.035-0.749-0.059-1.123-0.075c-0.311-0.013-0.621-0.02-0.933-0.019c-0.367,0.001-0.732,0.012-1.097,0.032
			c-0.325,0.017-0.649,0.041-0.973,0.073c-0.345,0.034-0.688,0.078-1.031,0.129c-0.343,0.051-0.683,0.109-1.024,0.177
			c-0.319,0.064-0.636,0.135-0.953,0.213c-0.355,0.087-0.707,0.183-1.057,0.289c-0.299,0.09-0.594,0.188-0.888,0.291
			c-0.354,0.124-0.704,0.256-1.052,0.398c-0.289,0.119-0.573,0.245-0.857,0.376c-0.335,0.155-0.667,0.317-0.995,0.491
			c-0.293,0.154-0.58,0.318-0.866,0.486c-0.301,0.178-0.599,0.36-0.892,0.553c-0.303,0.199-0.599,0.409-0.893,0.625
			c-0.26,0.191-0.517,0.385-0.77,0.589c-0.309,0.249-0.609,0.511-0.906,0.779c-0.224,0.203-0.446,0.407-0.663,0.62
			c-0.295,0.291-0.578,0.594-0.858,0.904c-0.126,0.14-0.264,0.264-0.387,0.408L118.189,469.334H66.881l77.508-93.009
			c3.195-3.834,4.945-8.667,4.945-13.657v-128c0-11.782-9.551-21.333-21.333-21.333H42.667v-42.667h85.333
			c11.782,0,21.333-9.551,21.333-21.333V42.667H192.001z M260.157,369.265l157.251,100.068H174.384L260.157,369.265z M42.667,256h64
			v98.943l-64,76.8V256z M106.667,42.667V128h-64V42.667H106.667z"/>
	</g>
</g>
</svg>