<svg width="14" height="14" viewBox="0 0 14 14" fill="none" xmlns="http://www.w3.org/2000/svg">
    <mask id="path-1-inside-1_12115_92047" fill="white">
        <path d="M14 1.41L12.59 0L7 5.59L1.41 0L0 1.41L5.59 7L0 12.59L1.41 14L7 8.41L12.59 14L14 12.59L8.41 7L14 1.41Z"/>
    </mask>
    <path d="M14 1.41L15.4142 2.82421L16.8284 1.41L15.4142 -0.00421354L14 1.41ZM12.59 0L14.0042 -1.41421L12.59 -2.82843L11.1758 -1.41421L12.59 0ZM7 5.59L5.58579 7.00421L7 8.41843L8.41421 7.00421L7 5.59ZM1.41 0L2.82421 -1.41421L1.41 -2.82843L-0.0042136 -1.41421L1.41 0ZM0 1.41L-1.41421 -0.0042136L-2.82843 1.41L-1.41421 2.82421L0 1.41ZM5.59 7L7.00421 8.41421L8.41843 7L7.00421 5.58579L5.59 7ZM0 12.59L-1.41421 11.1758L-2.82843 12.59L-1.41421 14.0042L0 12.59ZM1.41 14L-0.00421354 15.4142L1.41 16.8284L2.82421 15.4142L1.41 14ZM7 8.41L8.41421 6.99579L7 5.58157L5.58579 6.99579L7 8.41ZM12.59 14L11.1758 15.4142L12.59 16.8284L14.0042 15.4142L12.59 14ZM14 12.59L15.4142 14.0042L16.8284 12.59L15.4142 11.1758L14 12.59ZM8.41 7L6.99579 5.58579L5.58157 7L6.99579 8.41421L8.41 7ZM15.4142 -0.00421354L14.0042 -1.41421L11.1758 1.41421L12.5858 2.82421L15.4142 -0.00421354ZM11.1758 -1.41421L5.58579 4.17579L8.41421 7.00421L14.0042 1.41421L11.1758 -1.41421ZM8.41421 4.17579L2.82421 -1.41421L-0.00421361 1.41421L5.58579 7.00421L8.41421 4.17579ZM-0.0042136 -1.41421L-1.41421 -0.0042136L1.41421 2.82421L2.82421 1.41421L-0.0042136 -1.41421ZM-1.41421 2.82421L4.17579 8.41421L7.00421 5.58579L1.41421 -0.00421361L-1.41421 2.82421ZM4.17579 5.58579L-1.41421 11.1758L1.41421 14.0042L7.00421 8.41421L4.17579 5.58579ZM-1.41421 14.0042L-0.00421354 15.4142L2.82421 12.5858L1.41421 11.1758L-1.41421 14.0042ZM2.82421 15.4142L8.41421 9.82421L5.58579 6.99579L-0.00421361 12.5858L2.82421 15.4142ZM5.58579 9.82421L11.1758 15.4142L14.0042 12.5858L8.41421 6.99579L5.58579 9.82421ZM14.0042 15.4142L15.4142 14.0042L12.5858 11.1758L11.1758 12.5858L14.0042 15.4142ZM15.4142 11.1758L9.82421 5.58579L6.99579 8.41421L12.5858 14.0042L15.4142 11.1758ZM9.82421 8.41421L15.4142 2.82421L12.5858 -0.00421361L6.99579 5.58579L9.82421 8.41421Z" fill="#051E48" mask="url(#path-1-inside-1_12115_92047)"/>
</svg>
